<svg xmlns="http://www.w3.org/2000/svg" viewBox="0 0 600 220" width="600" height="220">
  <defs>
    <!-- Multi-stop gradient for depth -->
    <linearGradient id="gradA" x1="0" x2="1" y1="0" y2="1">
      <stop offset="0%" stop-color="#06b6d4"/>
      <stop offset="50%" stop-color="#3b82f6"/>
      <stop offset="100%" stop-color="#7c3aed"/>
    </linearGradient>
  </defs>

  <!-- Enhanced Abstract C -->
  <path d="M150 110c0-50 40-90 90-90 28 0 52 12 70 30l-22 22c-12-12-28-20-48-20-35 0-64 29-64 64s29 64 64 64c20 0 36-8 48-20l22 22c-18 18-42 30-70 30-50 0-90-40-90-90z"
        fill="url(#gradA)"/>

  <!-- Wordmark -->
  <text x="280" y="125" font-family="Poppins, Segoe UI, sans-serif" font-size="72" font-weight="700" fill="#0f172a" letter-spacing="1">
    Crew<tspan fill="#3b82f6">can</tspan>
  </text>
</svg>